<svg fill="none" viewBox="0 0 16 16" xmlns="http://www.w3.org/2000/svg">
  <!-- Forma originale -->
  <path d="M14.5 13.5V5.41a1 1 0 0 0-.3-.7L9.8.29A1 1 0 0 0 9.08 0H1.5v13.5A2.5 2.5 0 0 0 4 16h8a2.5 2.5 0 0 0 2.5-2.5m-1.5 0v-7H8v-5H3v12a1 1 0 0 0 1 1h8a1 1 0 0 0 1-1M9.5 5V2.12L12.38 5zM5.13 5h-.62v1.25h2.12V5zm-.62 3h7.12v1.25H4.5zm.62 3h-.62v1.25h7.12V11z" clip-rule="evenodd" fill="#666" fill-rule="evenodd"/>
  
  <!-- Cerchio aggiuntivo -->
  <circle cx="8" cy="8" r="2" stroke="#333" stroke-width="0.5" fill="rgba(255, 0, 0, 0.5)"/>
  
  <!-- Linee decorative -->
  <line x1="2" y1="2" x2="14" y2="2" stroke="#666" stroke-width="0.5" stroke-dasharray="2 1"/>
  <line x1="2" y1="14" x2="14" y2="14" stroke="#666" stroke-width="0.5" stroke-dasharray="2 1"/>
  
  <!-- Rettangoli -->
  <rect x="3" y="6" width="2" height="1" fill="blue" opacity="0.6"/>
  <rect x="11" y="6" width="2" height="1" fill="green" opacity="0.6"/>
  
  <!-- Cerchi piccoli -->
  <circle cx="4" cy="4" r="0.5" fill="black"/>
  <circle cx="12" cy="4" r="0.5" fill="black"/>
</svg>